<?xml version="1.0" encoding="utf-8"?>
<!-- Generator: Adobe Illustrator 19.0.0, SVG Export Plug-In . SVG Version: 6.00 Build 0)  -->
<svg version="1.1" id="Layer_1" xmlns="http://www.w3.org/2000/svg" xmlns:xlink="http://www.w3.org/1999/xlink" x="0px" y="0px"
	 viewBox="-217 29 80 80" style="enable-background:new -217 29 80 80;" xml:space="preserve">
<style type="text/css">
	.st0{fill:#FFFFFF;}
</style>
<g id="XMLID_93_">
	<path id="XMLID_23_" class="st0" d="M-144.8,77.7c-1.2,0.4-2.4,0.8-3.6,1.2c-1.2,0.4-2.5,0.8-3.7,1.2c-1.2,0.4-2.4,0.8-3.6,1.3
		c-0.3,0.1-0.5,0.2-0.7,0.3l0.8,1c0.4,0.6,0.9,1.1,1.4,1.7c0.5,0.6,0.9,1.1,1.4,1.7l1.4,1.6c0.5,0.5,1,1.1,1.5,1.6
		c1,1.1,2,2.1,3,3.2c1,1,2,2.1,3.1,3.1l0.4,0.4V77.3C-143.9,77.4-144.4,77.6-144.8,77.7z"/>
	<path id="XMLID_26_" class="st0" d="M-148.8,67.7c-1.1,0.4-2.3,0.7-3.4,1c-1.2,0.4-2.3,0.7-3.5,1.1c-1.2,0.4-2.4,0.8-3.6,1.1
		c-1.2,0.4-2.4,0.8-3.7,1.1c0,0-0.1,0-0.1,0c0,0,0,0.1,0.1,0.1c0.8,1.2,1.5,2.4,2.3,3.6c0.3,0.5,0.7,1,1.1,1.5
		c0.1,0,0.2-0.1,0.3-0.1c0.6-0.2,1.2-0.5,1.8-0.7c1.2-0.5,2.4-1,3.7-1.4c1.2-0.5,2.5-0.9,3.7-1.3c1.3-0.4,2.5-0.8,3.8-1.2
		c1-0.3,1.9-0.6,2.9-0.8V66c-0.7,0.2-1.4,0.4-2.1,0.6C-146.6,66.9-147.7,67.3-148.8,67.7z"/>
	<path id="XMLID_61_" class="st0" d="M-177.2,60.3c-0.5,0.4-1,0.9-1.5,1.4c-0.9,0.8-1.8,1.7-2.6,2.5c-0.9,0.8-1.8,1.6-2.6,2.5
		c-0.8,0.9-1.7,1.7-2.5,2.6c-0.9,0.8-1.7,1.8-2.5,2.7c-0.8,0.9-1.6,1.8-2.4,2.7c-0.8,0.9-1.5,1.9-2.3,2.8c-0.8,0.9-1.5,1.9-2.2,2.9
		l-1.1,1.4c-0.3,0.4-0.6,0.9-0.9,1.3c1-0.8,2.2-1.6,3.4-2.4c0.8-0.5,1.7-1.1,2.6-1.7c0.9-0.5,1.9-1.1,2.9-1.7
		c0.2-0.1,0.5-0.3,0.7-0.4c0.3-0.1,0.5-0.3,0.8-0.4c0.5-0.3,1-0.5,1.6-0.8c0.5-0.3,1.1-0.6,1.6-0.8c0.5-0.3,1.1-0.6,1.7-0.8
		c1.1-0.5,2.3-1,3.4-1.6c0.6-0.3,1.2-0.5,1.8-0.8c0.6-0.2,1.2-0.5,1.8-0.7c1-0.4,2.1-0.8,3.1-1.2c-0.3-0.5-0.6-1-0.9-1.6
		c-0.7-1.4-1.4-2.7-2.1-4.1C-176.1,62.7-176.7,61.5-177.2,60.3z"/>
	<path id="XMLID_85_" class="st0" d="M-146.3,98.4c-0.6-0.4-1.2-0.9-1.8-1.3c-0.6-0.4-1.2-0.9-1.8-1.4c-1.2-1-2.4-1.9-3.5-2.9
		c-0.6-0.5-1.1-1-1.7-1.5l-1.7-1.5c-0.6-0.5-1.1-1.1-1.6-1.6c-0.5-0.5-1.1-1.1-1.6-1.6c-0.5-0.6-1-1.1-1.6-1.7l-0.9-1
		c-0.1,0-0.1,0-0.2,0.1c-1.1,0.4-2.2,0.9-3.3,1.3c-1.1,0.4-2.1,0.8-3.2,1.3c-1,0.4-2,0.8-3,1.2c-1,0.4-1.9,0.8-2.8,1.2
		c-0.9,0.4-1.7,0.8-2.5,1.1c-0.8,0.4-1.6,0.7-2.3,1.1c-1.4,0.7-2.7,1.3-3.7,1.8c-1,0.5-1.8,1-2.3,1.3c-0.5,0.3-0.8,0.5-0.8,0.5
		s0.2-0.3,0.6-0.7c0.2-0.2,0.5-0.5,0.8-0.8c0.3-0.3,0.7-0.7,1.1-1.1c0.4-0.4,0.9-0.8,1.4-1.3c0.5-0.5,1.1-0.9,1.7-1.4
		c1.3-1,2.7-2.1,4.4-3.2c0.8-0.5,1.7-1.1,2.6-1.7c0.9-0.5,1.9-1.1,2.9-1.7c0.2-0.1,0.5-0.3,0.7-0.4c0.3-0.1,0.5-0.3,0.8-0.4
		c0.5-0.3,1-0.5,1.6-0.8c0.5-0.3,1.1-0.6,1.6-0.8c0.2-0.1,0.4-0.2,0.6-0.3c-0.1-0.1-0.2-0.3-0.3-0.4c-0.9-1.2-1.8-2.5-2.7-3.7
		c-0.4-0.5-0.7-1.1-1.1-1.6c-0.2,0.1-0.3,0.1-0.5,0.2c-1.2,0.4-2.4,0.8-3.6,1.3c-2.4,0.8-4.7,1.7-7,2.5c-1.1,0.4-2.2,0.9-3.3,1.3
		c-1.1,0.4-2.1,0.8-3.2,1.3c-1,0.4-2,0.8-3,1.2c-1,0.4-1.9,0.8-2.8,1.2c-0.9,0.4-1.7,0.8-2.5,1.1c-0.8,0.4-1.6,0.7-2.3,1.1
		c-1,0.5-2,1-2.8,1.4l-0.5,0.8c-0.3,0.5-0.7,1-1,1.5l-0.9,1.6c-0.3,0.5-0.6,1-0.9,1.6c-0.6,1.1-1.2,2.1-1.7,3.3
		c-0.6,1.1-1,2.2-1.5,3.4c-0.1,0.2-0.1,0.4-0.2,0.6c1.2,1.8,3.2,2.9,5.4,2.9h52c2.3,0,4.3-1.2,5.4-2.9
		C-145.1,99.2-145.7,98.8-146.3,98.4z"/>
	<path id="XMLID_87_" class="st0" d="M-207.8,96.9c0.1-0.6,0.3-1.2,0.4-1.8c0.2-0.6,0.3-1.2,0.5-1.8l0.6-1.8
		c0.4-1.2,0.9-2.4,1.3-3.6c0.4-1.2,1-2.3,1.5-3.5c0.2-0.6,0.5-1.2,0.8-1.7l0.9-1.7c0.3-0.6,0.6-1.1,0.9-1.7l1-1.7
		c0.7-1.1,1.3-2.2,2-3.3c0.7-1.1,1.4-2.1,2.1-3.2c0.7-1,1.5-2,2.3-3.1c0.8-1,1.5-2,2.4-3c0.8-1,1.6-1.9,2.5-2.9
		c0.8-1,1.7-1.9,2.6-2.8c0.9-0.9,1.8-1.8,2.7-2.7c0.9-0.9,1.9-1.7,2.8-2.6c0.9-0.9,1.9-1.7,2.8-2.6l4.1-3.7l1.6,5.5l0.1,0.4l0.1,0.5
		l0.3,1c0.2,0.6,0.5,1.3,0.7,1.9c0.5,1.3,1.1,2.6,1.6,3.9c0.6,1.3,1.2,2.6,1.9,3.8c0.4,0.9,0.9,1.7,1.4,2.6c0.4-0.1,0.9-0.3,1.3-0.4
		c1.3-0.4,2.5-0.7,3.8-1.1c2.5-0.7,5-1.3,7.4-1.8c2.4-0.5,4.7-1,7-1.4c1-0.2,2-0.3,3-0.4V44c0-3.6-2.9-6.5-6.5-6.5h-52
		c-3.6,0-6.5,2.9-6.5,6.5v52c0,0.8,0.2,1.6,0.4,2.3C-208,97.8-207.9,97.4-207.8,96.9z"/>
</g>
</svg>
